<svg xmlns="http://www.w3.org/2000/svg"
     width="512"
     height="512"
     viewBox="0 0 512 512">

<defs>

<linearGradient id="grad"
x1="0%"
y1="0%"
x2="100%"
y2="100%">

<stop offset="0%" stop-color="#00E5FF"/>

<stop offset="100%" stop-color="#2979FF"/>

</linearGradient>

</defs>

<rect
width="512"
height="512"
rx="110"
fill="#070B16"/>

<circle
cx="256"
cy="256"
r="130"
fill="none"
stroke="url(#grad)"
stroke-width="28"/>

<circle
cx="256"
cy="256"
r="70"
fill="#0F172A"/>

<rect
x="216"
y="216"
width="80"
height="80"
rx="8"
fill="url(#grad)"/>

<rect
x="232"
y="180"
width="8"
height="26"
fill="white"/>

<rect
x="248"
y="180"
width="8"
height="26"
fill="white"/>

<rect
x="264"
y="180"
width="8"
height="26"
fill="white"/>

<rect
x="280"
y="180"
width="8"
height="26"
fill="white"/>

<rect
x="232"
y="306"
width="8"
height="26"
fill="white"/>

<rect
x="248"
y="306"
width="8"
height="26"
fill="white"/>

<rect
x="264"
y="306"
width="8"
height="26"
fill="white"/>

<rect
x="280"
y="306"
width="8"
height="26"
fill="white"/>

<rect
x="180"
y="232"
width="26"
height="8"
fill="white"/>

<rect
x="180"
y="248"
width="26"
height="8"
fill="white"/>

<rect
x="180"
y="264"
width="26"
height="8"
fill="white"/>

<rect
x="180"
y="280"
width="26"
height="8"
fill="white"/>

<rect
x="306"
y="232"
width="26"
height="8"
fill="white"/>

<rect
x="306"
y="248"
width="26"
height="8"
fill="white"/>

<rect
x="306"
y="264"
width="26"
height="8"
fill="white"/>

<rect
x="306"
y="280"
width="26"
height="8"
fill="white"/>

</svg>